<svg width="210mm" height="210mm" inkscape:version="0.92.3 (2405546, 2018-03-11)" sodipodi:docname="halo.svg" version="1.1" viewBox="0 0 210 209" xmlns="http://www.w3.org/2000/svg" xmlns:inkscape="http://www.inkscape.org/namespaces/inkscape" xmlns:sodipodi="http://sodipodi.sourceforge.net/DTD/sodipodi-0.dtd">
   <sodipodi:namedview id="base" bordercolor="#666666" borderlayer="false" borderopacity="1.0" inkscape:current-layer="svg8" inkscape:cx="320.21881" inkscape:cy="389.88617" inkscape:document-units="mm" inkscape:pagecheckerboard="false" inkscape:pageopacity="0" inkscape:pageshadow="2" inkscape:showpageshadow="true" inkscape:snap-bbox="false" inkscape:snap-global="true" inkscape:snap-perpendicular="true" inkscape:snap-tangential="true" inkscape:window-height="996" inkscape:window-maximized="1" inkscape:window-width="1920" inkscape:window-x="-9" inkscape:window-y="-9" inkscape:zoom="0.90509668" objecttolerance="10" pagecolor="#000019" scale-x="1" showgrid="true" showguides="true" units="px" viewbox-height="210">
      <inkscape:grid dotted="false" empcolor="#ff1aff" empopacity="0.14901961" empspacing="5" enabled="true" snapvisiblegridlinesonly="true" spacingx="1.3229166" spacingy="1.3229166" type="xygrid" visible="true"/>
   </sodipodi:namedview>
   <g transform="translate(0,-87)" inkscape:groupmode="layer" inkscape:label="Layer 1">
      <path d="m200.78 191.77a94.872 96.006 0 0 1-94.286 96.004 94.872 96.006 0 0 1-95.451-94.818 94.872 96.006 0 0 1 93.107-97.176 94.872 96.006 0 0 1 96.601 93.617" fill="#c865ff" fill-opacity=".86275" stroke-width=".12059" inkscape:transform-center-x="-4.5357143" inkscape:transform-center-y="0.75594711" sodipodi:cx="105.91101" sodipodi:cy="191.77084" sodipodi:end="6.2584743" sodipodi:open="true" sodipodi:rx="94.871994" sodipodi:ry="96.005974" sodipodi:start="0" sodipodi:type="arc"/>
      <path d="m178.19 191.54a72.5 72.5 0 0 1-72.052 72.499 72.5 72.5 0 0 1-72.942-71.603 72.5 72.5 0 0 1 71.151-73.383 72.5 72.5 0 0 1 73.822 70.696" fill="#090fff" fill-opacity=".94118" stroke-width=".12185" sodipodi:cx="105.68629" sodipodi:cy="191.54019" sodipodi:end="6.2584714" sodipodi:open="true" sodipodi:rx="72.5" sodipodi:ry="72.5" sodipodi:start="0" sodipodi:type="arc"/>
      <path d="m168.12 190.97a62.479 62.478 0 0 1-62.093 62.477 62.479 62.478 0 0 1-62.86-61.705 62.479 62.478 0 0 1 61.316-63.24 62.479 62.478 0 0 1 63.618 60.924" fill="#000019" stroke-width=".088533" sodipodi:cx="105.64209" sodipodi:cy="190.96611" sodipodi:end="6.2584714" sodipodi:open="true" sodipodi:rx="62.478615" sodipodi:ry="62.4785" sodipodi:start="0" sodipodi:type="arc"/>
   </g>
</svg>
